<?xml version="1.0" encoding="UTF-8" standalone="no"?>
<!-- Generator: Gravit.io -->

<svg
   style="isolation:isolate"
   viewBox="0 0 20 20"
   width="20pt"
   height="20pt"
   version="1.1"
   id="svg1"
   sodipodi:docname="icon-star-filled.svg"
   inkscape:version="1.3.2 (091e20e, 2023-11-25, custom)"
   xmlns:inkscape="http://www.inkscape.org/namespaces/inkscape"
   xmlns:sodipodi="http://sodipodi.sourceforge.net/DTD/sodipodi-0.dtd"
   xmlns="http://www.w3.org/2000/svg"
   xmlns:svg="http://www.w3.org/2000/svg">
  <defs
     id="defs1">
    <filter
       style="color-interpolation-filters:sRGB;"
       inkscape:label="Drop Shadow"
       id="filter13"
       x="-0.81998818"
       y="-0.96486628"
       width="2.5399778"
       height="2.719979">
      <feFlood
         result="flood"
         in="SourceGraphic"
         flood-opacity="0.501961"
         flood-color="rgb(0,0,0)"
         id="feFlood12" />
      <feGaussianBlur
         result="blur"
         in="SourceGraphic"
         stdDeviation="3.000000"
         id="feGaussianBlur12" />
      <feOffset
         result="offset"
         in="blur"
         dx="-1.000000"
         dy="-3.000000"
         id="feOffset12" />
      <feComposite
         result="comp1"
         operator="out"
         in="flood"
         in2="offset"
         id="feComposite12" />
      <feComposite
         result="fbSourceGraphic"
         operator="atop"
         in="comp1"
         in2="SourceGraphic"
         id="feComposite13" />
      <feColorMatrix
         result="fbSourceGraphicAlpha"
         in="fbSourceGraphic"
         values="0 0 0 -1 0 0 0 0 -1 0 0 0 0 -1 0 0 0 0 1 0"
         id="feColorMatrix13" />
      <feFlood
         id="feFlood13"
         result="flood"
         in="fbSourceGraphic"
         flood-opacity="0.501961"
         flood-color="rgb(0,0,0)" />
      <feGaussianBlur
         id="feGaussianBlur13"
         result="blur"
         in="fbSourceGraphic"
         stdDeviation="3.000000" />
      <feOffset
         id="feOffset13"
         result="offset"
         in="blur"
         dx="-1.000000"
         dy="-1.000000" />
      <feComposite
         id="feComposite14"
         result="comp1"
         operator="out"
         in="flood"
         in2="offset" />
      <feComposite
         id="feComposite15"
         result="comp2"
         operator="atop"
         in="comp1"
         in2="fbSourceGraphic" />
    </filter>
  </defs>
  <sodipodi:namedview
     id="namedview1"
     pagecolor="#505050"
     bordercolor="#eeeeee"
     borderopacity="1"
     inkscape:showpageshadow="0"
     inkscape:pageopacity="0"
     inkscape:pagecheckerboard="0"
     inkscape:deskcolor="#505050"
     inkscape:document-units="pt"
     inkscape:zoom="18.178125"
     inkscape:cx="-42.056043"
     inkscape:cy="7.5090253"
     inkscape:window-width="3840"
     inkscape:window-height="2126"
     inkscape:window-x="-11"
     inkscape:window-y="-11"
     inkscape:window-maximized="1"
     inkscape:current-layer="svg1" />
  <path
     d=" M 9.998 0.465 C 9.79 0.465 9.582 0.625 9.424 0.946 L 7.291 5.269 C 6.974 5.913 6.133 6.521 5.425 6.623 L 0.656 7.316 C -0.053 7.419 -0.213 7.913 0.301 8.414 L 3.753 11.777 C 4.267 12.279 4.586 13.265 4.466 13.969 L 3.649 18.723 C 3.56 19.234 3.757 19.535 4.114 19.535 C 4.277 19.528 4.438 19.483 4.581 19.401 L 8.849 17.156 C 9.167 16.989 9.583 16.908 9.999 16.908 C 10.417 16.908 10.838 16.991 11.151 17.156 L 15.42 19.401 C 15.591 19.491 15.752 19.535 15.887 19.535 C 16.244 19.535 16.439 19.234 16.352 18.723 L 15.535 13.969 C 15.416 13.265 15.735 12.278 16.247 11.777 L 19.7 8.414 C 20.212 7.913 20.053 7.419 19.342 7.316 L 14.573 6.624 C 13.865 6.522 13.025 5.914 12.709 5.27 L 10.576 0.946 C 10.416 0.625 10.21 0.465 9.998 0.465 Z "
     fill="rgb(255,255,255)"
     id="path1"
     style="filter:url(#filter13)" />
</svg>
